<?xml version="1.0" encoding="utf-8"?>
<!-- Generator: Adobe Illustrator 15.0.0, SVG Export Plug-In . SVG Version: 6.00 Build 0)  -->
<!DOCTYPE svg PUBLIC "-//W3C//DTD SVG 1.1//EN" "http://www.w3.org/Graphics/SVG/1.1/DTD/svg11.dtd">
<svg version="1.1" id="Layer_1" xmlns="http://www.w3.org/2000/svg" xmlns:xlink="http://www.w3.org/1999/xlink" x="0px" y="0px"
	 width="512px" height="512px" viewBox="0 0 512 512" enable-background="new 0 0 512 512" xml:space="preserve">
<path fill="#FFFFFF" d="M48.244,335.348l60.4-49.664c9.61,7.52,21.556,12.188,34.707,12.188c12.815,0,24.501-4.43,33.999-11.607
	l25.228,24.978c-1.547,5.159-2.622,10.52-2.622,16.188c0,31.254,25.339,56.592,56.599,56.592c31.266,0,56.604-25.338,56.604-56.592
	c0-5.685-1.094-11.068-2.658-16.244l99.81-81.717c9.177,6.367,20.271,10.15,32.277,10.15c31.359,0,56.878-25.517,56.878-56.875
	c0-31.359-25.519-56.875-56.878-56.875c-31.357,0-56.872,25.516-56.872,56.875c0,7.961,1.672,15.536,4.647,22.416l-97.102,79.496
	c-9.921-8.51-22.638-13.838-36.707-13.838c-13.829,0-26.304,5.144-36.143,13.369l-24.065-23.642
	c2.205-6.035,3.608-12.468,3.608-19.27c0-31.271-25.34-56.61-56.604-56.61s-56.604,25.339-56.604,56.61
	c0,6.649,1.354,12.928,3.447,18.851l-61.947,50.945c-6.696,5.52-7.66,15.431-2.156,22.134
	C31.628,339.9,41.512,340.861,48.244,335.348z M442.588,157.307c14.021,0,25.438,11.405,25.438,25.436
	c0,14.021-11.416,25.426-25.438,25.426c-14.021,0-25.433-11.405-25.433-25.426C417.155,168.712,428.567,157.307,442.588,157.307z
	 M256.555,302.032c14.008,0,25.371,11.364,25.371,25.386s-11.363,25.387-25.371,25.387c-14.039,0-25.401-11.365-25.401-25.387
	C231.153,313.396,242.516,302.032,256.555,302.032z M143.352,215.88c14.008,0,25.371,11.365,25.371,25.389
	c0,14.021-11.363,25.387-25.371,25.387c-14.038,0-25.401-11.365-25.401-25.387C117.95,227.245,129.313,215.88,143.352,215.88z"/>
</svg>
