<?xml version="1.0" encoding="utf-8"?>
<!-- Generator: Adobe Illustrator 15.0.0, SVG Export Plug-In . SVG Version: 6.00 Build 0)  -->
<!DOCTYPE svg PUBLIC "-//W3C//DTD SVG 1.1//EN" "http://www.w3.org/Graphics/SVG/1.1/DTD/svg11.dtd">
<svg version="1.1" id="Layer_1" xmlns="http://www.w3.org/2000/svg" xmlns:xlink="http://www.w3.org/1999/xlink" x="0px" y="0px"
	 width="512px" height="512px" viewBox="0 0 512 512" enable-background="new 0 0 512 512" xml:space="preserve">
<g>
	<path fill="#FFFFFF" d="M495.026,173.549c-5.138-2.336-11.188-1.435-15.438,2.285L278.777,351.87
		c-22.73,19.922-56.828,19.431-78.979-1.138l-67.47-62.662c-5.424-5.053-13.811-5.144-19.364-0.225L17.05,372.941
		c-5.424,4.813-8.53,11.722-8.53,18.972v48.82c0,7.951,6.437,14.398,14.389,14.398h466.179c7.952,0,14.395-6.447,14.395-14.398
		V186.668C503.48,181.016,500.177,175.882,495.026,173.549z"/>
	<path fill="#FFFFFF" d="M34.244,266.348l60.4-49.665c9.61,7.52,21.556,12.188,34.707,12.188c12.815,0,24.501-4.429,33.999-11.607
		l25.228,24.977c-1.547,5.159-2.622,10.52-2.622,16.188c0,31.254,25.339,56.592,56.599,56.592c31.265,0,56.604-25.338,56.604-56.592
		c0-5.685-1.094-11.069-2.658-16.245l99.81-81.716c9.177,6.367,20.271,10.15,32.277,10.15c31.359,0,56.878-25.517,56.878-56.875
		c0-31.359-25.519-56.875-56.878-56.875c-31.357,0-56.872,25.516-56.872,56.875c0,7.961,1.672,15.536,4.647,22.416l-97.102,79.496
		c-9.921-8.51-22.638-13.838-36.708-13.838c-13.828,0-26.303,5.144-36.142,13.369l-24.065-23.641
		c2.205-6.035,3.608-12.468,3.608-19.27c0-31.271-25.34-56.61-56.604-56.61s-56.604,25.339-56.604,56.61
		c0,6.649,1.354,12.928,3.447,18.851l-61.947,50.945c-6.696,5.52-7.66,15.431-2.156,22.134
		C17.628,270.9,27.512,271.861,34.244,266.348z M428.588,88.307c14.021,0,25.438,11.405,25.438,25.436
		c0,14.021-11.416,25.426-25.438,25.426c-14.021,0-25.433-11.405-25.433-25.426C403.155,99.712,414.567,88.307,428.588,88.307z
		 M242.555,233.032c14.007,0,25.371,11.365,25.371,25.386c0,14.021-11.363,25.387-25.371,25.387
		c-14.039,0-25.401-11.365-25.401-25.387C217.153,244.397,228.516,233.032,242.555,233.032z M129.352,146.88
		c14.008,0,25.371,11.365,25.371,25.389c0,14.021-11.363,25.387-25.371,25.387c-14.038,0-25.401-11.365-25.401-25.387
		C103.95,158.245,115.313,146.88,129.352,146.88z"/>
</g>
</svg>
