<?xml version="1.0" encoding="utf-8"?>
<!-- Generator: Adobe Illustrator 15.0.0, SVG Export Plug-In . SVG Version: 6.00 Build 0)  -->
<!DOCTYPE svg PUBLIC "-//W3C//DTD SVG 1.1//EN" "http://www.w3.org/Graphics/SVG/1.1/DTD/svg11.dtd">
<svg version="1.1" id="Capa_1" xmlns="http://www.w3.org/2000/svg" xmlns:xlink="http://www.w3.org/1999/xlink" x="0px" y="0px"
	 width="322.447px" height="322.447px" viewBox="0 0 322.447 322.447" enable-background="new 0 0 322.447 322.447"
	 xml:space="preserve">
<g>
	<path fill="#FFFFFF" d="M321.832,230.327c-2.133-6.564-9.184-10.154-15.75-8.025l-16.254,5.281
		C299.785,206.991,305,184.347,305,161.224c0-84.09-68.41-152.5-152.5-152.5C68.411,8.724,0,77.135,0,161.224
		c0,84.089,68.411,152.5,152.5,152.5c6.903,0,12.5-5.598,12.5-12.5s-5.597-12.5-12.5-12.5c-70.304,0-127.5-57.195-127.5-127.5
		s57.196-127.5,127.5-127.5c70.306,0,127.5,57.195,127.5,127.5c0,19.372-4.371,38.337-12.724,55.567l-5.553-17.096
		c-2.133-6.564-9.186-10.156-15.75-8.025c-6.565,2.135-10.16,9.187-8.027,15.751l14.74,45.368c1.715,5.283,6.615,8.643,11.885,8.643
		c1.279,0,2.582-0.198,3.865-0.614l45.369-14.738C320.371,243.946,323.965,236.895,321.832,230.327z"/>
</g>
</svg>
